<?xml version="1.0" encoding="utf-8"?>
<!-- Generator: Adobe Illustrator 25.2.0, SVG Export Plug-In . SVG Version: 6.00 Build 0)  -->
<svg version="1.1" id="Calque_1" xmlns="http://www.w3.org/2000/svg" xmlns:xlink="http://www.w3.org/1999/xlink" x="0px" y="0px"
	 viewBox="0 0 280 400" style="enable-background:new 0 0 280 400;" xml:space="preserve">
<style type="text/css">
	.st0{fill:url(#SVGID_1_);stroke:#000000;stroke-width:3;stroke-miterlimit:10;}
	.st1{fill:#FFFFFF;stroke:#000000;stroke-width:3;stroke-linecap:round;stroke-linejoin:round;}
	.st2{fill:url(#SVGID_2_);stroke:#000000;stroke-width:3;stroke-miterlimit:10;}
	.st3{fill:url(#SVGID_3_);stroke:#000000;stroke-width:3;stroke-miterlimit:10;}
	.st4{fill:url(#SVGID_4_);stroke:#000000;stroke-width:3;stroke-miterlimit:10;}
	.st5{fill:url(#SVGID_5_);stroke:#000000;stroke-width:3;stroke-miterlimit:10;}
</style>
<radialGradient id="SVGID_1_" cx="140" cy="200" r="249.5549" gradientTransform="matrix(1 0 0 0.7432 0 51.3585)" gradientUnits="userSpaceOnUse">
	<stop  offset="0" style="stop-color:#676766"/>
	<stop  offset="0.4388" style="stop-color:#656565"/>
	<stop  offset="0.5969" style="stop-color:#5E6161"/>
	<stop  offset="0.7096" style="stop-color:#525959"/>
	<stop  offset="0.8007" style="stop-color:#434F4E"/>
	<stop  offset="0.8787" style="stop-color:#304240"/>
	<stop  offset="0.9466" style="stop-color:#193330"/>
	<stop  offset="1" style="stop-color:#002421"/>
</radialGradient>
<rect class="st0" width="280" height="400"/>
<path class="st1" d="M38.9,0v30.74c0,4.51-3.65,8.16-8.16,8.16H0V0H38.9z"/>
<path class="st1" d="M280,100.87v198.26c-35.32,27.09-84.99,43.95-140,43.95S35.32,326.22,0,299.13V100.87
	c35.32-27.09,84.99-43.95,140-43.95S244.68,73.78,280,100.87z"/>
<path class="st1" d="M73.1,133.1"/>
<path class="st1" d="M206.9,266.9"/>
<g>
	<g>
		<path d="M14.1,15.42v6.96h6.38v2.05H14.1v7h-2.16v-7H5.48v-2.05h6.46v-6.96H14.1z"/>
		<path d="M29.91,33.4v-7.17h-7.37v-1.87l6.5-16.95h3.27v16.66h2.07l-0.24,2.17h-1.83v7.17H29.91z M29.91,17.42
			c0-2.43,0.07-4.88,0.13-7.29H30c-1.5,4.56-3.31,9.44-4.94,13.93h4.85V17.42z"/>
	</g>
</g>
<radialGradient id="SVGID_2_" cx="104.5426" cy="226.1277" r="56.8486" gradientUnits="userSpaceOnUse">
	<stop  offset="0.0274" style="stop-color:#C0DDB4"/>
	<stop  offset="0.4702" style="stop-color:#BEDCB2"/>
	<stop  offset="0.6297" style="stop-color:#B9D9AC"/>
	<stop  offset="0.7434" style="stop-color:#AFD4A2"/>
	<stop  offset="0.8354" style="stop-color:#A1CE94"/>
	<stop  offset="0.9141" style="stop-color:#8DC581"/>
	<stop  offset="0.9825" style="stop-color:#71BA6B"/>
	<stop  offset="1" style="stop-color:#67B765"/>
</radialGradient>
<rect x="59.95" y="159.23" class="st2" width="89.19" height="133.79"/>
<radialGradient id="SVGID_3_" cx="82.2447" cy="176.5957" r="56.8486" gradientUnits="userSpaceOnUse">
	<stop  offset="0" style="stop-color:#F28F78"/>
	<stop  offset="0.4444" style="stop-color:#F28D76"/>
	<stop  offset="0.6045" style="stop-color:#F18870"/>
	<stop  offset="0.7186" style="stop-color:#EF7D64"/>
	<stop  offset="0.8108" style="stop-color:#ED6D55"/>
	<stop  offset="0.8898" style="stop-color:#EB5842"/>
	<stop  offset="0.9585" style="stop-color:#E73B2E"/>
	<stop  offset="1" style="stop-color:#E52421"/>
</radialGradient>
<rect x="37.65" y="109.7" class="st3" width="89.19" height="133.79"/>
<radialGradient id="SVGID_4_" cx="200.3936" cy="226.1277" r="56.8486" gradientUnits="userSpaceOnUse">
	<stop  offset="0" style="stop-color:#EEEEA7"/>
	<stop  offset="0.4377" style="stop-color:#EFEEA5"/>
	<stop  offset="0.5954" style="stop-color:#F0ED9F"/>
	<stop  offset="0.7078" style="stop-color:#F2EC94"/>
	<stop  offset="0.7986" style="stop-color:#F4EB83"/>
	<stop  offset="0.8764" style="stop-color:#F8E96B"/>
	<stop  offset="0.9441" style="stop-color:#FBE74A"/>
	<stop  offset="1" style="stop-color:#FFE514"/>
</radialGradient>
<rect x="155.8" y="159.23" class="st4" width="89.19" height="133.79"/>
<radialGradient id="SVGID_5_" cx="178.0745" cy="176.5957" r="56.8486" gradientUnits="userSpaceOnUse">
	<stop  offset="0" style="stop-color:#A3DAF2"/>
	<stop  offset="0.4709" style="stop-color:#A2D8F1"/>
	<stop  offset="0.6406" style="stop-color:#9CD3EF"/>
	<stop  offset="0.7615" style="stop-color:#93C9EA"/>
	<stop  offset="0.8592" style="stop-color:#86BBE4"/>
	<stop  offset="0.942" style="stop-color:#75AADB"/>
	<stop  offset="1" style="stop-color:#659AD2"/>
</radialGradient>
<rect x="133.48" y="109.7" class="st5" width="89.19" height="133.79"/>
</svg>
