<?xml version="1.0" encoding="utf-8"?>
<!-- Generator: Adobe Illustrator 25.2.0, SVG Export Plug-In . SVG Version: 6.00 Build 0)  -->
<svg version="1.1" id="Calque_1" xmlns="http://www.w3.org/2000/svg" xmlns:xlink="http://www.w3.org/1999/xlink" x="0px" y="0px"
	 viewBox="0 0 280 400" style="enable-background:new 0 0 280 400;" xml:space="preserve">
<style type="text/css">
	.st0{fill:url(#SVGID_1_);stroke:#000000;stroke-width:3;stroke-miterlimit:10;}
	.st1{fill:#FFFFFF;stroke:#000000;stroke-width:3;stroke-linecap:round;stroke-linejoin:round;}
</style>
<radialGradient id="SVGID_1_" cx="140" cy="200" r="249.5549" gradientTransform="matrix(1 0 0 0.7432 0 51.3585)" gradientUnits="userSpaceOnUse">
	<stop  offset="0.0274" style="stop-color:#C0DDB4"/>
	<stop  offset="0.4702" style="stop-color:#BEDCB2"/>
	<stop  offset="0.6297" style="stop-color:#B9D9AC"/>
	<stop  offset="0.7434" style="stop-color:#AFD4A2"/>
	<stop  offset="0.8354" style="stop-color:#A1CE94"/>
	<stop  offset="0.9141" style="stop-color:#8DC581"/>
	<stop  offset="0.9825" style="stop-color:#71BA6B"/>
	<stop  offset="1" style="stop-color:#67B765"/>
</radialGradient>
<rect class="st0" width="280" height="400"/>
<path class="st1" d="M38.9,0v30.74c0,4.51-3.65,8.16-8.16,8.16H0V0H38.9z"/>
<path class="st1" d="M280,100.87v198.26c-35.32,27.09-84.99,43.95-140,43.95S35.32,326.22,0,299.13V100.87
	c35.32-27.09,84.99-43.95,140-43.95S244.68,73.78,280,100.87z"/>
<g>
	<g>
		<path d="M151.53,304.64v-53.79H96.24V236.8l48.73-127.16h24.57v124.95h15.56l-1.82,16.26h-13.74v53.79H151.53z M151.53,184.79
			c0-18.25,0.51-36.61,1.01-54.66h-0.3c-11.29,34.21-24.79,70.83-37.09,104.46h36.38V184.79z"/>
	</g>
</g>
<g>
	<g>
		<path d="M20.99,33.4v-7.17h-7.37v-1.87l6.5-16.95h3.27v16.66h2.07l-0.24,2.17h-1.83v7.17H20.99z M20.99,17.42
			c0-2.43,0.07-4.88,0.13-7.29h-0.04c-1.5,4.56-3.31,9.44-4.94,13.93h4.85V17.42z"/>
	</g>
</g>
</svg>
