<?xml version="1.0" encoding="utf-8"?>
<!-- Generator: Adobe Illustrator 25.2.0, SVG Export Plug-In . SVG Version: 6.00 Build 0)  -->
<svg version="1.1" id="Calque_1" xmlns="http://www.w3.org/2000/svg" xmlns:xlink="http://www.w3.org/1999/xlink" x="0px" y="0px"
	 viewBox="0 0 280 400" style="enable-background:new 0 0 280 400;" xml:space="preserve">
<style type="text/css">
	.st0{fill:url(#SVGID_1_);stroke:#000000;stroke-width:3;stroke-miterlimit:10;}
	.st1{fill:#FFFFFF;stroke:#000000;stroke-width:3;stroke-linecap:round;stroke-linejoin:round;}
	.st2{fill:#FFFFFF;stroke:#FFFFFF;stroke-width:3;stroke-linecap:round;stroke-linejoin:round;}
	.st3{fill:#FFFFFF;stroke:#000000;stroke-linecap:round;stroke-linejoin:round;}
	.st4{fill:#FFFFFF;stroke:#FFFFFF;stroke-linecap:round;stroke-linejoin:round;}
</style>
<radialGradient id="SVGID_1_" cx="140" cy="200" r="249.5549" gradientTransform="matrix(1 0 0 0.7432 0 51.3585)" gradientUnits="userSpaceOnUse">
	<stop  offset="0" style="stop-color:#EEEEA7"/>
	<stop  offset="0.4377" style="stop-color:#EFEEA5"/>
	<stop  offset="0.5954" style="stop-color:#F0ED9F"/>
	<stop  offset="0.7078" style="stop-color:#F2EC94"/>
	<stop  offset="0.7986" style="stop-color:#F4EB83"/>
	<stop  offset="0.8764" style="stop-color:#F8E96B"/>
	<stop  offset="0.9441" style="stop-color:#FBE74A"/>
	<stop  offset="1" style="stop-color:#FFE514"/>
</radialGradient>
<rect x="0" y="0" class="st0" width="280" height="400"/>
<path class="st1" d="M38.9,0v30.74c0,4.51-3.65,8.16-8.16,8.16H0V0H38.9z"/>
<path class="st1" d="M280,100.87v198.26c-35.32,27.09-84.99,43.95-140,43.95S35.32,326.22,0,299.13V100.87
	c35.32-27.09,84.99-43.95,140-43.95S244.68,73.78,280,100.87z"/>
<path class="st1" d="M73.1,133.1"/>
<path class="st1" d="M206.9,266.9"/>
<g>
	<polygon class="st1" points="224.36,207.85 224.36,248.16 94.65,248.16 94.65,280.37 38.9,228.01 60.37,207.85 	"/>
	<polygon class="st2" points="64.73,157.04 64.73,203.87 186.76,203.87 186.76,241.28 251.44,180.46 186.76,119.63 186.76,157.04 	
		"/>
	<polygon class="st1" points="60.3,161.21 60.3,201.52 190,201.52 190,233.73 245.75,181.37 190,129.01 190,161.21 	"/>
</g>
<g>
	<polygon class="st3" points="30.99,21.09 30.99,26.97 12.09,26.97 12.09,31.66 3.97,24.03 7.1,21.09 	"/>
	<polygon class="st4" points="7.73,12.69 7.73,19.51 25.51,19.51 25.51,24.96 34.93,16.1 25.51,7.24 25.51,12.69 	"/>
	<polygon class="st3" points="7.09,13.3 7.09,19.17 25.98,19.17 25.98,23.86 34.1,16.24 25.98,8.61 25.98,13.3 	"/>
</g>
</svg>
