<?xml version="1.0" encoding="utf-8"?>
<!-- Generator: Adobe Illustrator 25.2.0, SVG Export Plug-In . SVG Version: 6.00 Build 0)  -->
<svg version="1.1" id="Calque_1" xmlns="http://www.w3.org/2000/svg" xmlns:xlink="http://www.w3.org/1999/xlink" x="0px" y="0px"
	 viewBox="0 0 280 400" style="enable-background:new 0 0 280 400;" xml:space="preserve">
<style type="text/css">
	.st0{fill:url(#SVGID_1_);stroke:#000000;stroke-width:3;stroke-miterlimit:10;}
	.st1{fill:#FFFFFF;stroke:#000000;stroke-width:3;stroke-linecap:round;stroke-linejoin:round;}
	.st2{fill:#FFFFFF;stroke:#000000;stroke-width:3;stroke-miterlimit:10;}
	.st3{fill:#FFFFFF;stroke:#FFFFFF;stroke-width:3;stroke-miterlimit:10;}
</style>
<radialGradient id="SVGID_1_" cx="140" cy="200" r="249.5549" gradientTransform="matrix(1 0 0 0.7432 0 51.3585)" gradientUnits="userSpaceOnUse">
	<stop  offset="0" style="stop-color:#EEEEA7"/>
	<stop  offset="0.4377" style="stop-color:#EFEEA5"/>
	<stop  offset="0.5954" style="stop-color:#F0ED9F"/>
	<stop  offset="0.7078" style="stop-color:#F2EC94"/>
	<stop  offset="0.7986" style="stop-color:#F4EB83"/>
	<stop  offset="0.8764" style="stop-color:#F8E96B"/>
	<stop  offset="0.9441" style="stop-color:#FBE74A"/>
	<stop  offset="1" style="stop-color:#FFE514"/>
</radialGradient>
<rect x="0" y="0" class="st0" width="280" height="400"/>
<path class="st1" d="M38.9,0v30.74c0,4.51-3.65,8.16-8.16,8.16H0V0H38.9z"/>
<path class="st1" d="M280,100.87v198.26c-35.32,27.09-84.99,43.95-140,43.95S35.32,326.22,0,299.13V100.87
	c35.32-27.09,84.99-43.95,140-43.95S244.68,73.78,280,100.87z"/>
<g>
	<g>
		<path d="M14.58,15.42v6.96h6.38v2.05h-6.38v7h-2.16v-7H5.96v-2.05h6.46v-6.96H14.58z"/>
		<path d="M23.02,33.4v-0.37c0.01-3.92,1.87-7.07,5.06-11.8c2.11-3.1,2.65-4.37,2.65-7.28c0-3.23-0.52-4.68-2.47-4.68
			c-1.87,0-2.56,1.47-2.56,3.78v1.17h-2.39v-1.26c0-2.81,0.84-5.88,5.07-5.88c4.02,0,4.94,2.98,4.94,6.75c0,4.06-1.06,5.6-3.11,8.54
			c-2.53,3.7-4.17,6.51-4.37,8.79h8.06l-0.37,2.24H23.02z"/>
	</g>
</g>
<rect x="66.23" y="157.94" class="st2" width="89.19" height="133.79"/>
<rect x="114.79" y="105.68" class="st3" width="94.47" height="139.06"/>
<rect x="117.47" y="108.4" class="st2" width="89.19" height="133.79"/>
</svg>
