<?xml version="1.0" encoding="utf-8"?>
<!-- Generator: Adobe Illustrator 25.2.0, SVG Export Plug-In . SVG Version: 6.00 Build 0)  -->
<svg version="1.1" id="Calque_1" xmlns="http://www.w3.org/2000/svg" xmlns:xlink="http://www.w3.org/1999/xlink" x="0px" y="0px"
	 viewBox="0 0 280 400" style="enable-background:new 0 0 280 400;" xml:space="preserve">
<style type="text/css">
	.st0{fill:url(#SVGID_1_);stroke:#FFFFFF;stroke-width:3;stroke-miterlimit:10;}
	.st1{fill:#FFFFFF;stroke:#000000;stroke-width:3;stroke-linecap:round;stroke-linejoin:round;}
	.st2{fill:url(#SVGID_2_);}
	.st3{fill:url(#SVGID_3_);}
	.st4{fill:url(#SVGID_4_);}
	.st5{fill:url(#SVGID_5_);}
	.st6{fill:#FFFFFF;stroke:#000000;stroke-width:3;stroke-miterlimit:10;}
</style>
<radialGradient id="SVGID_1_" cx="140" cy="200" r="172.6268" gradientUnits="userSpaceOnUse">
	<stop  offset="0" style="stop-color:#141414"/>
	<stop  offset="1" style="stop-color:#090A0A"/>
</radialGradient>
<rect class="st0" width="280" height="400"/>
<path class="st1" d="M73.1,133.1"/>
<path class="st1" d="M206.9,266.9"/>
<g>
	<linearGradient id="SVGID_2_" gradientUnits="userSpaceOnUse" x1="23.1764" y1="141.5887" x2="140.0035" y2="141.5887">
		<stop  offset="0" style="stop-color:#F28F78"/>
		<stop  offset="0.0415" style="stop-color:#EF7D65"/>
		<stop  offset="0.1102" style="stop-color:#EC644D"/>
		<stop  offset="0.1892" style="stop-color:#E94E3A"/>
		<stop  offset="0.2814" style="stop-color:#E73C2E"/>
		<stop  offset="0.3955" style="stop-color:#E62F26"/>
		<stop  offset="0.5556" style="stop-color:#E52722"/>
		<stop  offset="1" style="stop-color:#E52421"/>
	</linearGradient>
	<path class="st2" d="M140,83.18V200H23.18c8.68-24.5,24.17-49.26,45.87-70.96C90.73,107.35,115.5,91.85,140,83.18z"/>
	<linearGradient id="SVGID_3_" gradientUnits="userSpaceOnUse" x1="140.0035" y1="137.52" x2="264.9609" y2="137.52">
		<stop  offset="0" style="stop-color:#659AD2"/>
		<stop  offset="0.4709" style="stop-color:#679BD3"/>
		<stop  offset="0.6406" style="stop-color:#6CA0D6"/>
		<stop  offset="0.7615" style="stop-color:#75AADB"/>
		<stop  offset="0.8592" style="stop-color:#83B8E2"/>
		<stop  offset="0.942" style="stop-color:#93C9EA"/>
		<stop  offset="1" style="stop-color:#A3DAF2"/>
	</linearGradient>
	<path class="st3" d="M256.82,200H140V83.18c39.64-14.04,78.62-10.24,102.84,13.97C267.07,121.38,270.86,160.35,256.82,200z"/>
	<linearGradient id="SVGID_4_" gradientUnits="userSpaceOnUse" x1="15.0364" y1="262.4761" x2="140.0035" y2="262.4761">
		<stop  offset="0.0274" style="stop-color:#C0DDB4"/>
		<stop  offset="0.0448" style="stop-color:#B9D9AD"/>
		<stop  offset="0.1133" style="stop-color:#A3CF97"/>
		<stop  offset="0.192" style="stop-color:#8FC684"/>
		<stop  offset="0.284" style="stop-color:#7EBF75"/>
		<stop  offset="0.3977" style="stop-color:#71BA6C"/>
		<stop  offset="0.5572" style="stop-color:#69B866"/>
		<stop  offset="1" style="stop-color:#67B765"/>
	</linearGradient>
	<path class="st4" d="M140,200v116.82c-39.65,14.04-78.63,10.25-102.85-13.98C12.93,278.62,9.13,239.64,23.18,200H140z"/>
	<linearGradient id="SVGID_5_" gradientUnits="userSpaceOnUse" x1="140.0035" y1="258.4061" x2="256.8209" y2="258.4061">
		<stop  offset="0" style="stop-color:#FFE514"/>
		<stop  offset="0.4377" style="stop-color:#FFE51A"/>
		<stop  offset="0.5954" style="stop-color:#FEE62A"/>
		<stop  offset="0.7078" style="stop-color:#FCE63E"/>
		<stop  offset="0.7986" style="stop-color:#FAE856"/>
		<stop  offset="0.8764" style="stop-color:#F7EA70"/>
		<stop  offset="0.9441" style="stop-color:#F3EC8C"/>
		<stop  offset="1" style="stop-color:#EEEEA7"/>
	</linearGradient>
	<path class="st5" d="M256.82,200c-8.68,24.5-24.17,49.26-45.87,70.96c-21.69,21.69-46.45,37.18-70.95,45.86V200H256.82z"/>
</g>
<ellipse transform="matrix(0.7071 -0.7071 0.7071 0.7071 -100.4163 157.5736)" class="st6" cx="140" cy="200" rx="140" ry="96.6"/>
<g>
	<g>
		<path d="M89.54,163.01v60.01c0,6.52,2.32,11.1,8.36,11.1c6.15,0,8.28-4.19,8.28-11.03v-60.08h7.38v59.78
			c0,11.82-5.3,18.05-15.82,18.05c-10.27,0-15.51-5.82-15.51-17.82v-60H89.54z"/>
		<path d="M124.82,239.83v-76.82h8.82c4.39,15.02,15.44,55.84,16.8,62.63h0.19c-0.43-10.54-0.58-21.35-0.58-33.85v-28.79h6.94v76.82
			h-8.54c-4.48-15.65-15.67-57.97-17.29-64.77h-0.12c0.5,9.24,0.76,21.95,0.76,35.83v28.94H124.82z"/>
		<path d="M199.16,181.52v39.38c0,13.21-5.4,19.93-16.48,19.93c-11.76,0-15.81-7.68-15.81-19.85v-39.43
			c0-12.66,5.59-19.55,16.32-19.55C194.47,162,199.16,170,199.16,181.52z M174.34,181.33v40.15c0,9.17,3.33,12.71,8.7,12.71
			c5.63,0,8.66-3.46,8.66-13.12v-39.71c0-8.64-3.02-12.68-8.74-12.68C177.12,168.68,174.34,172.52,174.34,181.33z"/>
	</g>
</g>
</svg>
