<?xml version="1.0" encoding="utf-8"?>
<!-- Generator: Adobe Illustrator 25.2.0, SVG Export Plug-In . SVG Version: 6.00 Build 0)  -->
<svg version="1.1" id="Calque_1" xmlns="http://www.w3.org/2000/svg" xmlns:xlink="http://www.w3.org/1999/xlink" x="0px" y="0px"
	 viewBox="0 0 280 400" style="enable-background:new 0 0 280 400;" xml:space="preserve">
<style type="text/css">
	.st0{fill:url(#SVGID_1_);stroke:#000000;stroke-width:3;stroke-miterlimit:10;}
	.st1{fill:#FFFFFF;stroke:#000000;stroke-width:3;stroke-linecap:round;stroke-linejoin:round;}
</style>
<radialGradient id="SVGID_1_" cx="140" cy="200" r="249.5549" gradientTransform="matrix(1 0 0 0.7432 0 51.3585)" gradientUnits="userSpaceOnUse">
	<stop  offset="0" style="stop-color:#F28F78"/>
	<stop  offset="0.4444" style="stop-color:#F28D76"/>
	<stop  offset="0.6045" style="stop-color:#F18870"/>
	<stop  offset="0.7186" style="stop-color:#EF7D64"/>
	<stop  offset="0.8108" style="stop-color:#ED6D55"/>
	<stop  offset="0.8898" style="stop-color:#EB5842"/>
	<stop  offset="0.9585" style="stop-color:#E73B2E"/>
	<stop  offset="1" style="stop-color:#E52421"/>
</radialGradient>
<rect class="st0" width="280" height="400"/>
<path class="st1" d="M38.9,0v30.74c0,4.51-3.65,8.16-8.16,8.16H0V0H38.9z"/>
<path class="st1" d="M280,100.87v198.26c-35.32,27.09-84.99,43.95-140,43.95S35.32,326.22,0,299.13V100.87
	c35.32-27.09,84.99-43.95,140-43.95S244.68,73.78,280,100.87z"/>
<g>
	<g>
		<path d="M133.85,304.64v-172.3c-5.4,2.82-17.8,6.48-23.16,7.15v-15.32c10.96-2.45,23.56-10.28,28.48-15.83h13.75v196.29H133.85z"
			/>
	</g>
</g>
<g>
	<g>
		<path d="M18.63,33.4V10.43c-0.72,0.38-2.37,0.86-3.09,0.95V9.34c1.46-0.33,3.14-1.37,3.8-2.11h1.83V33.4H18.63z"/>
	</g>
</g>
</svg>
