<?xml version="1.0" encoding="utf-8"?>
<!-- Generator: Adobe Illustrator 25.2.0, SVG Export Plug-In . SVG Version: 6.00 Build 0)  -->
<svg version="1.1" id="Calque_1" xmlns="http://www.w3.org/2000/svg" xmlns:xlink="http://www.w3.org/1999/xlink" x="0px" y="0px"
	 viewBox="0 0 280 400" style="enable-background:new 0 0 280 400;" xml:space="preserve">
<style type="text/css">
	.st0{fill:url(#SVGID_1_);stroke:#000000;stroke-width:3;stroke-miterlimit:10;}
	.st1{fill:#FFFFFF;stroke:#000000;stroke-width:3;stroke-linecap:round;stroke-linejoin:round;}
	.st2{fill:#FFFFFF;stroke:#000000;stroke-linecap:round;stroke-linejoin:round;}
</style>
<radialGradient id="SVGID_1_" cx="140" cy="200" r="249.5549" gradientTransform="matrix(1 0 0 0.7432 0 51.3585)" gradientUnits="userSpaceOnUse">
	<stop  offset="0" style="stop-color:#F28F78"/>
	<stop  offset="0.4444" style="stop-color:#F28D76"/>
	<stop  offset="0.6045" style="stop-color:#F18870"/>
	<stop  offset="0.7186" style="stop-color:#EF7D64"/>
	<stop  offset="0.8108" style="stop-color:#ED6D55"/>
	<stop  offset="0.8898" style="stop-color:#EB5842"/>
	<stop  offset="0.9585" style="stop-color:#E73B2E"/>
	<stop  offset="1" style="stop-color:#E52421"/>
</radialGradient>
<rect class="st0" width="280" height="400"/>
<path class="st1" d="M38.9,0v30.74c0,4.51-3.65,8.16-8.16,8.16H0V0H38.9z"/>
<path class="st1" d="M280,100.87v198.26c-35.32,27.09-84.99,43.95-140,43.95S35.32,326.22,0,299.13V100.87
	c35.32-27.09,84.99-43.95,140-43.95S244.68,73.78,280,100.87z"/>
<path class="st1" d="M73.1,133.1"/>
<path class="st1" d="M206.9,266.9"/>
<path class="st1" d="M140,112.53c-48.31,0-87.47,39.16-87.47,87.47s39.16,87.47,87.47,87.47s87.47-39.16,87.47-87.47
	S188.31,112.53,140,112.53z M70.68,200c0-38.28,31.04-69.32,69.32-69.32c15.61,0,30.02,5.16,41.62,13.87l-97.07,97.07
	C75.84,230.02,70.68,215.61,70.68,200z M140,269.32c-15.61,0-30.02-5.16-41.62-13.87l97.07-97.07c8.71,11.6,13.87,26.01,13.87,41.62
	C209.32,238.28,178.28,269.32,140,269.32z"/>
<path class="st2" d="M19.45,4.99c-7.99,0-14.46,6.47-14.46,14.46s6.47,14.46,14.46,14.46s14.46-6.47,14.46-14.46
	S27.44,4.99,19.45,4.99z M7.99,19.45c0-6.33,5.13-11.46,11.46-11.46c2.58,0,4.96,0.85,6.88,2.29L10.28,26.33
	C8.84,24.41,7.99,22.03,7.99,19.45z M19.45,30.91c-2.58,0-4.96-0.85-6.88-2.29l16.05-16.05c1.44,1.92,2.29,4.3,2.29,6.88
	C30.91,25.78,25.78,30.91,19.45,30.91z"/>
</svg>
