<?xml version="1.0" encoding="utf-8"?>
<!-- Generator: Adobe Illustrator 25.2.0, SVG Export Plug-In . SVG Version: 6.00 Build 0)  -->
<svg version="1.1" id="Calque_1" xmlns="http://www.w3.org/2000/svg" xmlns:xlink="http://www.w3.org/1999/xlink" x="0px" y="0px"
	 viewBox="0 0 280 400" style="enable-background:new 0 0 280 400;" xml:space="preserve">
<style type="text/css">
	.st0{fill:url(#SVGID_1_);stroke:#000000;stroke-width:3;stroke-miterlimit:10;}
	.st1{fill:#FFFFFF;stroke:#000000;stroke-width:3;stroke-linecap:round;stroke-linejoin:round;}
</style>
<radialGradient id="SVGID_1_" cx="140" cy="200" r="249.5549" gradientTransform="matrix(1 0 0 0.7432 0 51.3585)" gradientUnits="userSpaceOnUse">
	<stop  offset="0" style="stop-color:#A3DAF2"/>
	<stop  offset="0.4709" style="stop-color:#A2D8F1"/>
	<stop  offset="0.6406" style="stop-color:#9CD3EF"/>
	<stop  offset="0.7615" style="stop-color:#93C9EA"/>
	<stop  offset="0.8592" style="stop-color:#86BBE4"/>
	<stop  offset="0.942" style="stop-color:#75AADB"/>
	<stop  offset="1" style="stop-color:#659AD2"/>
</radialGradient>
<rect class="st0" width="280" height="400"/>
<path class="st1" d="M38.9,0v30.74c0,4.51-3.65,8.16-8.16,8.16H0V0H38.9z"/>
<path class="st1" d="M280,100.87v198.26c-35.32,27.09-84.99,43.95-140,43.95S35.32,326.22,0,299.13V100.87
	c35.32-27.09,84.99-43.95,140-43.95S244.68,73.78,280,100.87z"/>
<g>
	<g>
		<path d="M99.86,304.64v-2.74c0.11-29.4,14.03-53.01,37.97-88.52c15.81-23.28,19.88-32.78,19.88-54.58c0-24.22-3.93-35.1-18.5-35.1
			c-14.04,0-19.19,11.06-19.19,28.38v8.76H102.1v-9.46c0-21.06,6.34-44.14,38.02-44.14c30.13,0,37.04,22.34,37.04,50.63
			c0,30.43-7.98,41.99-23.32,64.08c-19,27.74-31.26,48.86-32.76,65.9h60.45l-2.76,16.79H99.86z"/>
	</g>
</g>
<g>
	<g>
		<path d="M14.1,33.4v-0.37c0.01-3.92,1.87-7.07,5.06-11.8c2.11-3.1,2.65-4.37,2.65-7.28c0-3.23-0.52-4.68-2.47-4.68
			c-1.87,0-2.56,1.47-2.56,3.78v1.17H14.4v-1.26c0-2.81,0.84-5.88,5.07-5.88c4.02,0,4.94,2.98,4.94,6.75c0,4.06-1.06,5.6-3.11,8.54
			c-2.53,3.7-4.17,6.51-4.37,8.79h8.06l-0.37,2.24H14.1z"/>
	</g>
</g>
</svg>
