<?xml version="1.0" encoding="utf-8"?>
<!-- Generator: Adobe Illustrator 25.2.0, SVG Export Plug-In . SVG Version: 6.00 Build 0)  -->
<svg version="1.1" id="Calque_1" xmlns="http://www.w3.org/2000/svg" xmlns:xlink="http://www.w3.org/1999/xlink" x="0px" y="0px"
	 viewBox="0 0 280 400" style="enable-background:new 0 0 280 400;" xml:space="preserve">
<style type="text/css">
	.st0{fill:url(#SVGID_1_);stroke:#000000;stroke-width:3;stroke-miterlimit:10;}
	.st1{fill:#FFFFFF;stroke:#000000;stroke-width:3;stroke-linecap:round;stroke-linejoin:round;}
</style>
<radialGradient id="SVGID_1_" cx="140" cy="200" r="249.5549" gradientTransform="matrix(1 0 0 0.7432 0 51.3585)" gradientUnits="userSpaceOnUse">
	<stop  offset="0" style="stop-color:#A3DAF2"/>
	<stop  offset="0.4709" style="stop-color:#A2D8F1"/>
	<stop  offset="0.6406" style="stop-color:#9CD3EF"/>
	<stop  offset="0.7615" style="stop-color:#93C9EA"/>
	<stop  offset="0.8592" style="stop-color:#86BBE4"/>
	<stop  offset="0.942" style="stop-color:#75AADB"/>
	<stop  offset="1" style="stop-color:#659AD2"/>
</radialGradient>
<rect class="st0" width="280" height="400"/>
<path class="st1" d="M38.9,0v30.74c0,4.51-3.65,8.16-8.16,8.16H0V0H38.9z"/>
<path class="st1" d="M280,100.87v198.26c-35.32,27.09-84.99,43.95-140,43.95S35.32,326.22,0,299.13V100.87
	c35.32-27.09,84.99-43.95,140-43.95S244.68,73.78,280,100.87z"/>
<g>
	<g>
		<path d="M174.38,126.84h-48.49c-1.09,16.78-2.98,45.05-4.66,60.76c3.81-6.65,12.9-11.98,24.65-11.98
			c25.91,0,34.27,19.48,34.27,51.51v23.38c0,31.33-7.42,56.53-41.26,56.53c-30.93,0-39.93-21.41-39.93-46.01v-3.06h19.16v4.79
			c0,13.37,4.44,27.83,20.78,27.83c18.29,0,21.57-15.55,21.57-36.57v-25.88c0-22.07-3.39-35.66-20.02-35.66
			c-12.91,0-18.63,7.36-21.98,21.96l-17.3-2.03c3.09-26.93,6.79-84.13,7.82-102.77h67.72L174.38,126.84z"/>
	</g>
</g>
<g>
	<g>
		<path d="M24.03,9.7h-6.46c-0.15,2.24-0.4,6.01-0.62,8.1c0.51-0.89,1.72-1.6,3.29-1.6c3.45,0,4.57,2.6,4.57,6.87v3.12
			c0,4.18-0.99,7.54-5.5,7.54c-4.12,0-5.32-2.85-5.32-6.13v-0.41h2.55v0.64c0,1.78,0.59,3.71,2.77,3.71c2.44,0,2.88-2.07,2.88-4.88
			V23.2c0-2.94-0.45-4.75-2.67-4.75c-1.72,0-2.48,0.98-2.93,2.93l-2.31-0.27c0.41-3.59,0.91-11.21,1.04-13.7h9.03L24.03,9.7z"/>
	</g>
</g>
</svg>
