<?xml version="1.0" encoding="utf-8"?>
<!-- Generator: Adobe Illustrator 25.2.0, SVG Export Plug-In . SVG Version: 6.00 Build 0)  -->
<svg version="1.1" id="Calque_1" xmlns="http://www.w3.org/2000/svg" xmlns:xlink="http://www.w3.org/1999/xlink" x="0px" y="0px"
	 viewBox="0 0 280 400" style="enable-background:new 0 0 280 400;" xml:space="preserve">
<style type="text/css">
	.st0{fill:url(#SVGID_1_);stroke:#000000;stroke-width:3;stroke-miterlimit:10;}
	.st1{fill:#FFFFFF;stroke:#000000;stroke-width:3;stroke-linecap:round;stroke-linejoin:round;}
</style>
<radialGradient id="SVGID_1_" cx="140" cy="200" r="249.5549" gradientTransform="matrix(1 0 0 0.7432 0 51.3585)" gradientUnits="userSpaceOnUse">
	<stop  offset="0" style="stop-color:#A3DAF2"/>
	<stop  offset="0.4709" style="stop-color:#A2D8F1"/>
	<stop  offset="0.6406" style="stop-color:#9CD3EF"/>
	<stop  offset="0.7615" style="stop-color:#93C9EA"/>
	<stop  offset="0.8592" style="stop-color:#86BBE4"/>
	<stop  offset="0.942" style="stop-color:#75AADB"/>
	<stop  offset="1" style="stop-color:#659AD2"/>
</radialGradient>
<rect class="st0" width="280" height="400"/>
<path class="st1" d="M38.9,0v30.74c0,4.51-3.65,8.16-8.16,8.16H0V0H38.9z"/>
<path class="st1" d="M280,100.87v198.26c-35.32,27.09-84.99,43.95-140,43.95S35.32,326.22,0,299.13V100.87
	c35.32-27.09,84.99-43.95,140-43.95S244.68,73.78,280,100.87z"/>
<g>
	<g>
		<path d="M159.89,151.1v-1.84c0-8.98-1.61-25.47-18.8-25.47c-17,0-20.99,12.54-20.99,37.96v29.57c4.04-7.89,11.84-15.7,27.48-15.7
			c25.08,0,32.95,19.78,32.95,42.93v37.19c0,30.09-8.83,51.31-40.04,51.31c-31.11,0-39.24-22.9-39.24-51.15v-94.62
			c0-33.39,9.65-54.03,40.04-54.03c30.21,0,36.93,21.86,36.93,42.47v1.39H159.89z M161.57,258.32v-36.43
			c0-17.27-4.14-29.07-19.51-29.07c-17.56,0-21.96,15.6-21.96,35.46v30.04c0,17.04,4.14,32.47,20.69,32.47
			C154.62,290.79,161.57,281.58,161.57,258.32z"/>
	</g>
</g>
<g>
	<g>
		<path d="M22.1,12.93v-0.24c0-1.2-0.21-3.4-2.51-3.4c-2.27,0-2.8,1.67-2.8,5.06v3.94c0.54-1.05,1.58-2.09,3.66-2.09
			c3.34,0,4.39,2.64,4.39,5.72v4.96c0,4.01-1.18,6.84-5.34,6.84c-4.15,0-5.23-3.05-5.23-6.82V14.29c0-4.45,1.29-7.2,5.34-7.2
			c4.03,0,4.92,2.91,4.92,5.66v0.19H22.1z M22.32,27.23v-4.86c0-2.3-0.55-3.88-2.6-3.88c-2.34,0-2.93,2.08-2.93,4.73v4
			c0,2.27,0.55,4.33,2.76,4.33C21.4,31.56,22.32,30.33,22.32,27.23z"/>
	</g>
</g>
</svg>
