<?xml version="1.0" encoding="utf-8"?>
<!-- Generator: Adobe Illustrator 25.2.0, SVG Export Plug-In . SVG Version: 6.00 Build 0)  -->
<svg version="1.1" id="Calque_1" xmlns="http://www.w3.org/2000/svg" xmlns:xlink="http://www.w3.org/1999/xlink" x="0px" y="0px"
	 viewBox="0 0 280 400" style="enable-background:new 0 0 280 400;" xml:space="preserve">
<style type="text/css">
	.st0{fill:url(#SVGID_1_);stroke:#000000;stroke-width:3;stroke-miterlimit:10;}
	.st1{fill:#FFFFFF;stroke:#000000;stroke-width:3;stroke-linecap:round;stroke-linejoin:round;}
</style>
<radialGradient id="SVGID_1_" cx="140" cy="200" r="249.5549" gradientTransform="matrix(1 0 0 0.7432 0 51.3585)" gradientUnits="userSpaceOnUse">
	<stop  offset="0" style="stop-color:#A3DAF2"/>
	<stop  offset="0.4709" style="stop-color:#A2D8F1"/>
	<stop  offset="0.6406" style="stop-color:#9CD3EF"/>
	<stop  offset="0.7615" style="stop-color:#93C9EA"/>
	<stop  offset="0.8592" style="stop-color:#86BBE4"/>
	<stop  offset="0.942" style="stop-color:#75AADB"/>
	<stop  offset="1" style="stop-color:#659AD2"/>
</radialGradient>
<rect class="st0" width="280" height="400"/>
<path class="st1" d="M38.9,0v30.74c0,4.51-3.65,8.16-8.16,8.16H0V0H38.9z"/>
<path class="st1" d="M280,100.87v198.26c-35.32,27.09-84.99,43.95-140,43.95S35.32,326.22,0,299.13V100.87
	c35.32-27.09,84.99-43.95,140-43.95S244.68,73.78,280,100.87z"/>
<g>
	<g>
		<path d="M99.55,260.54v-22.76c0-25.44,10.39-33.24,19.41-38.58c-10.41-6.04-16.52-16.22-16.52-35.88v-12.61
			c0-26.64,12.4-43.37,38.64-43.37c23.23,0,36.93,13.83,36.93,43.3v11.51c0,24.67-7.99,32.01-17.19,36.94
			c11.7,5.33,19.5,15.34,19.5,38.21v22.19c0,31.29-12.22,47.55-40.66,47.55C113.85,307.04,99.55,291.97,99.55,260.54z
			 M161.46,261.09V235.8c0-19.44-6.86-27.81-21.48-27.81c-14.62,0-21.46,8.43-21.46,28.76v23.86c0,17.13,5.86,29.75,21.38,29.75
			C156.75,290.36,161.46,278.39,161.46,261.09z M120.96,150.06v16.55c0,14.61,5.79,24.69,19.42,24.69c12.66,0,19.01-7.53,19.01-25.1
			v-16.34c0-14.18-3.39-25.94-19.12-25.94C125.81,123.92,120.96,134.93,120.96,150.06z"/>
	</g>
</g>
<g>
	<g>
		<path d="M14.06,27.52v-3.03c0-3.39,1.39-4.43,2.59-5.14c-1.39-0.81-2.2-2.16-2.2-4.78v-1.68c0-3.55,1.65-5.78,5.15-5.78
			c3.1,0,4.92,1.84,4.92,5.77v1.54c0,3.29-1.07,4.27-2.29,4.92c1.56,0.71,2.6,2.04,2.6,5.09v2.96c0,4.17-1.63,6.34-5.42,6.34
			C15.96,33.72,14.06,31.71,14.06,27.52z M22.31,27.6v-3.37c0-2.59-0.91-3.71-2.86-3.71c-1.95,0-2.86,1.12-2.86,3.83v3.18
			c0,2.28,0.78,3.97,2.85,3.97C21.68,31.5,22.31,29.9,22.31,27.6z M16.91,12.79V15c0,1.95,0.77,3.29,2.59,3.29
			c1.69,0,2.53-1,2.53-3.35v-2.18c0-1.89-0.45-3.46-2.55-3.46C17.56,9.31,16.91,10.78,16.91,12.79z"/>
	</g>
</g>
</svg>
