<?xml version="1.0" encoding="utf-8"?>
<!-- Generator: Adobe Illustrator 25.2.0, SVG Export Plug-In . SVG Version: 6.00 Build 0)  -->
<svg version="1.1" id="Calque_1" xmlns="http://www.w3.org/2000/svg" xmlns:xlink="http://www.w3.org/1999/xlink" x="0px" y="0px"
	 viewBox="0 0 280 400" style="enable-background:new 0 0 280 400;" xml:space="preserve">
<style type="text/css">
	.st0{fill:url(#SVGID_1_);stroke:#000000;stroke-width:3;stroke-miterlimit:10;}
	.st1{fill:#FFFFFF;stroke:#000000;stroke-width:3;stroke-linecap:round;stroke-linejoin:round;}
</style>
<radialGradient id="SVGID_1_" cx="140" cy="200" r="249.5549" gradientTransform="matrix(1 0 0 0.7432 0 51.3585)" gradientUnits="userSpaceOnUse">
	<stop  offset="0" style="stop-color:#A3DAF2"/>
	<stop  offset="0.4709" style="stop-color:#A2D8F1"/>
	<stop  offset="0.6406" style="stop-color:#9CD3EF"/>
	<stop  offset="0.7615" style="stop-color:#93C9EA"/>
	<stop  offset="0.8592" style="stop-color:#86BBE4"/>
	<stop  offset="0.942" style="stop-color:#75AADB"/>
	<stop  offset="1" style="stop-color:#659AD2"/>
</radialGradient>
<rect class="st0" width="280" height="400"/>
<path class="st1" d="M38.9,0v30.74c0,4.51-3.65,8.16-8.16,8.16H0V0H38.9z"/>
<path class="st1" d="M280,100.87v198.26c-35.32,27.09-84.99,43.95-140,43.95S35.32,326.22,0,299.13V100.87
	c35.32-27.09,84.99-43.95,140-43.95S244.68,73.78,280,100.87z"/>
<g>
	<g>
		<path d="M120.51,263.11v1.57c0,18.21,6.88,26,18.41,26c15.63,0,20.46-9.39,20.46-42.21v-37.09c-4.13,9.33-11.31,15.64-26.24,15.64
			c-25.01,0-33.29-18.71-33.29-45.2v-28.81c0-28.31,12.61-45.77,39.44-45.77c24.93,0,38.75,14.66,38.75,46.79v89.45
			c0,39.08-4.25,63.56-39.42,63.56c-29.27,0-36.97-20.34-36.97-43.01v-0.92H120.51z M118.81,151.44v30.13
			c0,13.83,2.72,28.48,18.93,28.48c17.48,0,21.44-15.94,21.44-36.23V152.1c0-18.8-5.62-28.61-20.09-28.61
			C125.99,123.5,118.81,131.47,118.81,151.44z"/>
	</g>
</g>
<g>
	<g>
		<path d="M16.85,27.87v0.21c0,2.43,0.92,3.46,2.45,3.46c2.08,0,2.73-1.25,2.73-5.63v-4.94c-0.55,1.24-1.51,2.08-3.5,2.08
			c-3.33,0-4.44-2.49-4.44-6.03v-3.84c0-3.77,1.68-6.1,5.26-6.1c3.32,0,5.17,1.95,5.17,6.24v11.92c0,5.21-0.57,8.47-5.25,8.47
			c-3.9,0-4.93-2.71-4.93-5.73v-0.12H16.85z M16.62,12.98v4.02c0,1.84,0.36,3.8,2.52,3.8c2.33,0,2.86-2.12,2.86-4.83v-2.89
			c0-2.51-0.75-3.81-2.68-3.81C17.58,9.25,16.62,10.32,16.62,12.98z"/>
	</g>
</g>
</svg>
